<svg width="17" height="18" viewBox="0 0 17 18" fill="none" xmlns="http://www.w3.org/2000/svg">
<path id="Vector" d="M3.84524 0.5C3.73789 0.50001 3.63495 0.542658 3.55904 0.618563C3.48313 0.694469 3.44049 0.797416 3.44048 0.904762V5.35714H13.5595V0.904762C13.5595 0.797416 13.5169 0.694469 13.441 0.618563C13.3651 0.542658 13.2621 0.50001 13.1548 0.5H3.84524ZM0.404762 6.16667C0.297416 6.16668 0.194469 6.20932 0.118563 6.28523C0.0426579 6.36114 1.02024e-05 6.46408 0 6.57143V13.8571C1.03241e-05 13.9645 0.0426581 14.0674 0.118563 14.1433C0.194469 14.2192 0.297416 14.2619 0.404762 14.2619H2.63095V11.0238C2.63095 10.358 3.1794 9.80952 3.84524 9.80952H13.1548C13.8206 9.80952 14.369 10.358 14.369 11.0238V14.2619H16.5952C16.7026 14.2619 16.8055 14.2192 16.8814 14.1433C16.9573 14.0674 17 13.9645 17 13.8571V6.57143C17 6.46408 16.9573 6.36114 16.8814 6.28523C16.8055 6.20932 16.7026 6.16668 16.5952 6.16667H0.404762ZM13.7619 7.78571H14.9762C15.0293 7.78571 15.082 7.79618 15.1311 7.81652C15.1802 7.83687 15.2248 7.86668 15.2624 7.90427C15.3 7.94185 15.3298 7.98647 15.3501 8.03558C15.3705 8.08469 15.381 8.13732 15.381 8.19048C15.381 8.24363 15.3705 8.29626 15.3501 8.34537C15.3298 8.39448 15.3 8.4391 15.2624 8.47669C15.2248 8.51427 15.1802 8.54409 15.1311 8.56443C15.082 8.58477 15.0293 8.59524 14.9762 8.59524H13.7619C13.7088 8.59524 13.6561 8.58477 13.607 8.56443C13.5579 8.54409 13.5133 8.51427 13.4757 8.47669C13.4381 8.4391 13.4083 8.39448 13.388 8.34537C13.3676 8.29626 13.3571 8.24363 13.3571 8.19048C13.3571 8.13732 13.3676 8.08469 13.388 8.03558C13.4083 7.98647 13.4381 7.94185 13.4757 7.90427C13.5133 7.86668 13.5579 7.83687 13.607 7.81652C13.6561 7.79618 13.7088 7.78571 13.7619 7.78571ZM3.84524 10.619C3.73789 10.6191 3.63495 10.6617 3.55904 10.7376C3.48313 10.8135 3.44049 10.9165 3.44048 11.0238V17.0952C3.44049 17.2026 3.48313 17.3055 3.55904 17.3814C3.63495 17.4573 3.73789 17.5 3.84524 17.5H13.1548C13.2621 17.5 13.3651 17.4573 13.441 17.3814C13.5169 17.3055 13.5595 17.2026 13.5595 17.0952V11.0238C13.5595 10.9165 13.5169 10.8135 13.441 10.7376C13.3651 10.6617 13.2621 10.6191 13.1548 10.619H3.84524ZM5.86905 12.6429H11.131C11.2383 12.6429 11.3413 12.6855 11.4172 12.7614C11.4931 12.8373 11.5357 12.9403 11.5357 13.0476C11.5357 13.155 11.4931 13.2579 11.4172 13.3338C11.3413 13.4097 11.2383 13.4524 11.131 13.4524H5.86905C5.81589 13.4524 5.76326 13.4419 5.71415 13.4216C5.66504 13.4012 5.62042 13.3714 5.58284 13.3338C5.54525 13.2962 5.51544 13.2516 5.4951 13.2025C5.47475 13.1534 5.46429 13.1008 5.46429 13.0476C5.46429 12.9403 5.50693 12.8373 5.58284 12.7614C5.65874 12.6855 5.7617 12.6429 5.86905 12.6429ZM5.86905 14.6667H11.131C11.2383 14.6667 11.3413 14.7093 11.4172 14.7852C11.4931 14.8611 11.5357 14.9641 11.5357 15.0714C11.5357 15.1788 11.4931 15.2817 11.4172 15.3576C11.3413 15.4335 11.2383 15.4762 11.131 15.4762H5.86905C5.7617 15.4762 5.65874 15.4335 5.58284 15.3576C5.50693 15.2817 5.46429 15.1788 5.46429 15.0714C5.46429 14.9641 5.50693 14.8611 5.58284 14.7852C5.65874 14.7093 5.7617 14.6667 5.86905 14.6667Z" fill="#EC871B"/>
</svg>
