<svg xmlns="http://www.w3.org/2000/svg" width="287" height="178" fill="none">
  <path fill="#011F3E" d="M0 0h287v178H0z"/>
  <g fill="#fff" clip-path="url(#a)">
    <path d="M110.82 97.37v.87h-5.22v2.11h4.34v.9h-4.34v3.22h-.87v-7.1h6.1Zm3.54 0h-.87v7.1h.87v-7.1Zm4.42 0 4.97 5.82v-5.82h.87v7.1h-.91l-4.94-5.75v5.75h-.87v-7.1h.88Zm13.12 0 3.47 7.1h-.94l-1.14-2.35h-3.92l-1.15 2.36h-.94l3.47-7.1h1.17-.01Zm-.52.87h-.13l-1.48 3.03h3.08l-1.47-3.03Zm7.52-.87 4.97 5.82v-5.82h.87v7.1h-.92l-4.93-5.75v5.75h-.87v-7.1h.88Zm9.4 5.46a3.94 3.94 0 0 1-.5-1.97c0-.78.16-1.45.51-2 .34-.56.8-.98 1.4-1.27a4.93 4.93 0 0 1 3.57-.18c.49.16.9.42 1.27.78.35.36.58.82.69 1.38l-.76.3c-.1-.4-.3-.74-.58-1.02a2.77 2.77 0 0 0-1-.62c-.39-.14-.78-.2-1.2-.2-.58 0-1.1.1-1.54.32-.45.22-.8.55-1.05.98-.26.43-.38.93-.38 1.53a3 3 0 0 0 .39 1.55c.26.44.62.79 1.09 1.03.46.24.98.37 1.56.37.44 0 .85-.07 1.24-.23.38-.15.7-.38.97-.7.27-.3.43-.68.5-1.13l.26.1.47.2a2.58 2.58 0 0 1-.63 1.52c-.35.4-.79.69-1.3.87-.5.17-1.05.27-1.62.27a4 4 0 0 1-1.99-.5 3.58 3.58 0 0 1-1.38-1.38m10.81-5.46h-.87v7.1h.87v-7.1Zm7.27 0 3.46 7.1h-.93l-1.15-2.35h-3.93l-1.15 2.36h-.93l3.46-7.1h1.17Zm-.53.87h-.12l-1.5 3.03h3.1l-1.48-3.03Zm7.52-.87v6.26h5.06v.84h-5.94v-7.1h.88Zm15.22 0c.97 0 1.69.18 2.16.54.47.36.7.87.7 1.53 0 .36-.1.7-.3 1.05a2.5 2.5 0 0 1-2.18 1.18l-3.24.02v2.78h-.87v-7.1h3.72Zm1 3.25c.28-.12.48-.29.64-.5.15-.2.22-.43.22-.68 0-.4-.15-.7-.45-.92-.3-.21-.75-.32-1.37-.32l-1.52.02h-1.36v2.58h2.84c.39 0 .72-.06 1-.18m5.52-3.25v6.26h5.06v.84h-5.94v-7.1h.88Zm11.8 0 3.46 7.1h-.93l-1.15-2.35h-3.93l-1.14 2.36h-.94l3.46-7.1h1.18-.01Zm-.53.87h-.12l-1.49 3.03h3.09l-1.48-3.03Zm7.53-.87 4.96 5.82v-5.82h.87v7.1h-.9l-4.94-5.75v5.75h-.87v-7.1h.88Zm10.28 0 4.96 5.82v-5.82h.88v7.1h-.92l-4.93-5.75v5.75h-.88v-7.1h.89Zm10.27 0h-.88v7.1h.88v-7.1Zm4.42 0 4.96 5.82v-5.82h.88v7.1h-.92l-4.94-5.75v5.75h-.87v-7.1h.89Zm9.4 5.51a3.96 3.96 0 0 1-.48-1.97 4 4 0 0 1 .49-2.02c.32-.56.78-1 1.36-1.3a4.76 4.76 0 0 1 3.54-.2c.49.16.9.42 1.26.78.36.36.59.82.7 1.37l-.76.3c-.1-.39-.3-.72-.58-1a2.7 2.7 0 0 0-1-.63 3.53 3.53 0 0 0-2.73.15c-.43.23-.76.57-1 1a3.2 3.2 0 0 0-.37 1.55 3 3 0 0 0 .38 1.54c.25.44.61.78 1.06 1.02.46.24.98.36 1.56.36a2.56 2.56 0 0 0 2.65-2.39h-1.97v-.78h2.83v3.82h-.63v-.44c0-.45-.02-.84-.03-1.18a3.4 3.4 0 0 1-1.21 1.36c-.51.33-1.1.5-1.75.5a3.9 3.9 0 0 1-1.98-.49 3.48 3.48 0 0 1-1.36-1.35M105.99 87.37c.25 0 .38-.13.38-.38v-9.45c0-.25-.13-.38-.38-.38h-1.9v-.38h13.84v4h-.38c0-.67-.18-1.29-.52-1.84a3.6 3.6 0 0 0-1.41-1.3 4.08 4.08 0 0 0-1.93-.48h-3.1c-.26 0-.39.13-.39.38v4.35h1.35c.77 0 1.37-.25 1.8-.76.43-.5.7-1.13.8-1.87h.37v5.65h-.38a3.66 3.66 0 0 0-.79-1.88 2.23 2.23 0 0 0-1.8-.76h-1.35v4.71c0 .26.13.38.38.38h2.84v.39h-9.33v-.39h1.9Zm16.86-3.13v-6.7c0-.24-.12-.37-.38-.37h-1.9v-.39h8.4v.39h-1.9c-.25 0-.38.12-.38.38v6.96c0 1.1.31 1.95.94 2.51.63.57 1.4.85 2.3.85.75 0 1.41-.14 2-.41a3.2 3.2 0 0 0 1.4-1.18c.33-.51.5-1.11.5-1.8v-4.81c0-.83-.2-1.44-.58-1.85-.4-.4-.87-.62-1.42-.65v-.38h4.94v.38a2.9 2.9 0 0 0-1.75.67c-.48.4-.72 1-.72 1.81v4.62c0 1.35-.44 2.35-1.32 3a6 6 0 0 1-3.66.99c-1.84 0-3.38-.3-4.61-.9-1.24-.59-1.86-1.63-1.86-3.1m18.27 3.11c.26 0 .38-.13.38-.38v-9.45c0-.25-.12-.38-.38-.38h-1.9v-.38h8.4v.38h-1.9c-.26 0-.38.13-.38.38V87c0 .25.12.38.38.38h3.63a2.8 2.8 0 0 0 1.74-.57c.5-.38.9-.89 1.17-1.5a4.7 4.7 0 0 0 .42-1.96h.38v4.41h-13.83v-.38h1.9Zm16.34 0c.25 0 .38-.13.38-.38v-9.45c0-.25-.13-.38-.38-.38h-1.9v-.38h8.39v.38h-1.89c-.25 0-.38.13-.38.38V87c0 .25.13.38.38.38h3.63c.66 0 1.24-.19 1.75-.57.5-.38.89-.89 1.17-1.5a4.7 4.7 0 0 0 .42-1.96h.38v4.41h-13.84v-.38h1.9-.01Zm16.34 0c.26 0 .38-.13.38-.38v-9.45c0-.25-.12-.38-.38-.38h-1.9v-.38h13.84v4h-.38a3.51 3.51 0 0 0-1.92-3.14 4.08 4.08 0 0 0-1.94-.48h-3.1c-.26 0-.38.13-.38.38v4.35h1.34c.77 0 1.37-.25 1.8-.76.43-.5.7-1.13.8-1.87h.38v5.65h-.38a3.61 3.61 0 0 0-.8-1.88 2.23 2.23 0 0 0-1.8-.76h-1.34v4.71c0 .26.12.38.38.38h3.25c.66 0 1.27-.18 1.84-.57a4.1 4.1 0 0 0 1.37-1.5c.33-.62.5-1.27.5-1.95h.38v4.41h-13.83v-.38h1.9Zm25.14-1.07c-.14-.42-.3-.97-.44-1.64a11.4 11.4 0 0 0-.48-1.63c-.15-.36-.37-.58-.66-.64a8.22 8.22 0 0 0-1.83-.15l-.74.01V87c0 .25.13.38.38.38h1.89v.38h-8.39v-.38h1.9c.25 0 .38-.13.38-.38v-9.45c0-.25-.13-.38-.38-.38h-1.9v-.38h5.6l3.77-.11c1.87 0 3.24.24 4.11.74.87.5 1.3 1.19 1.3 2.08 0 .64-.11 1.14-.35 1.53a2.2 2.2 0 0 1-1.17.88c-.54.2-1.27.33-2.18.37v.13c.49.06.9.23 1.25.49s.64.56.86.9c.22.35.47.79.74 1.34.27.5.5.9.68 1.2.2.3.43.54.7.74.28.2.62.29 1 .29h.48v.38c-1.15.05-2.7.07-4.7.07-.47 0-.86-.14-1.16-.45-.3-.3-.52-.65-.66-1.07m-.12-5.01c.43-.38.64-.98.64-1.8 0-1.6-.9-2.39-2.69-2.39a16.7 16.7 0 0 0-1.6.06c-.26 0-.39.13-.39.38v4.31h1.86c1.04 0 1.77-.19 2.19-.56Zm12.73 6.08c.26 0 .38-.13.38-.38v-9.83h-.28c-.68.04-1.39.29-2.11.74-.73.45-1.33 1-1.8 1.68a3.37 3.37 0 0 0-.73 1.97h-.38v-4.77h14.44v4.77h-.37a3.4 3.4 0 0 0-.76-2.03 6.24 6.24 0 0 0-1.89-1.69 4.26 4.26 0 0 0-2.16-.66h-.12v9.82c0 .26.13.38.38.38h2.08v.39h-8.76v-.39h2.08Zm13.05-2.07a5.42 5.42 0 0 1 0-6 6.3 6.3 0 0 1 2.55-2.2 8.33 8.33 0 0 1 3.77-.83c1.42 0 2.67.28 3.76.82a6.34 6.34 0 0 1 2.53 2.2 5.42 5.42 0 0 1 0 6 6.38 6.38 0 0 1-2.53 2.2c-1.1.55-2.34.82-3.76.82a8.33 8.33 0 0 1-3.77-.82 6.37 6.37 0 0 1-2.54-2.2Zm9.33-3c0-1.58-.25-2.9-.76-4-.5-1.09-1.25-1.63-2.25-1.63s-1.76.54-2.27 1.63a9.45 9.45 0 0 0-.76 4c0 1.58.26 2.9.76 4 .5 1.09 1.26 1.63 2.27 1.63 1 0 1.75-.54 2.25-1.63.5-1.1.76-2.42.76-4Zm8.95 2.57c0 .83.24 1.44.7 1.85a2.5 2.5 0 0 0 1.68.65v.39h-5.5v-.39a3.18 3.18 0 0 0 1.88-.66c.51-.4.77-1.01.77-1.82V78.1c-.4-.4-.78-.66-1.13-.77-.34-.1-.73-.16-1.14-.16v-.39h6.13l6.8 5.94v-3.06c0-.82-.2-1.44-.59-1.84-.39-.4-.87-.63-1.42-.65v-.39H256v.39a2.9 2.9 0 0 0-1.74.66c-.48.4-.72 1.01-.72 1.82v8.47h-.34l-10.32-9.58v6.33ZM63.21 61C45.42 61 31 75.54 31 93.47c0 9.26 3.86 17.62 10.04 23.53a43.1 43.1 0 0 1 12.61-4.26c.03-.39.08-.81.15-1.28a54.02 54.02 0 0 1 3.73-12.86c.17-.4.09-.68-.27-.82a3.04 3.04 0 0 0-1.89-.13c-.22.05-.41.1-.57.16-.16.05-.27.07-.33.05-.07-.02-.08-.1-.04-.24.1-.4.58-1.26 1.07-1.48.5-.22 1.26-.42 2.29-.6.49-.1.86-.22 1.1-.32.25-.11.51-.42.78-.93a122.05 122.05 0 0 1 5.37-7.84c.45-.5.47-.74.07-.7-.4.03-.92.16-1.54.38-.32.1-.53.17-.68.17-.13 0-.27.05-.43-.33-.04-.1.01-.32.1-.43.1-.11.23-.18.4-.22 1.17-.43 2.05-1.07 3.12-1.83l2.56-1.8c.27-.18.73-.3.97-.3 1.22.05 1.56.8 1.7.98.13.19.18.41.16.68-.02.28-.17.54-.43.79l-1.48 1.5c-.72.7-1.5 1.56-2.36 2.55-.84 1-1.72 2.1-2.62 3.3-.9 1.2-1.65 2.41-2.28 3.64-.18.37-.24.59-.17.66.07.07.34.14.84.22 1.07.14 2.29.23 3.66.27a161.97 161.97 0 0 0 7.76.03l2.55-.03c.67 0 1.02.1.94.22-.16.24-.53.3-1.17.42-.59.12-1.34.31-2.83.5a39.6 39.6 0 0 1-4.25.26 993.23 993.23 0 0 0-7.82.14c-.5 0-.85.08-1.08.25-.23.16-.4.44-.54.84-.53 1.12-.87 1.94-1.43 3.23a44.9 44.9 0 0 0-1.48 3.86 32.37 32.37 0 0 0-1 3.75c-.22 1.07-.3 2.03-.26 2.91 2.52-.34 5.15-.53 7.87-.53 8.45 0 16.15 1.79 21.98 4.71a32.48 32.48 0 0 0 9.54-23.06C95.43 75.54 81.01 61 63.21 61Zm23.61 21.61a4.3 4.3 0 0 1-1.97 1.53c-1.6.61-3.3.45-4.84.12a21.13 21.13 0 0 1-4.37-1.66c-.7-.33-1.37-.73-2-1.08l-1.9-1.07-3.8-2.07a66.49 66.49 0 0 0-3.84-1.9 34.28 34.28 0 0 0-7.78-2.75c-1.3-.29-2.6-.45-3.87-.44a13 13 0 0 0-2.82.34c-.28.07-.5.12-.74.21a5.3 5.3 0 0 0-2.46 2.02 7.55 7.55 0 0 0-1.22 3.25 6.18 6.18 0 0 0 2.98 6.13c1.08.7 2.4 1.16 3.78 1.46 1.38.3 2.84.43 4.3.48l.04.23c-1.46.17-2.94.24-4.41.1a11.88 11.88 0 0 1-4.27-1.16 7.7 7.7 0 0 1-3.26-3A7.92 7.92 0 0 1 43.36 79c.07-1.5.54-2.98 1.33-4.26a7.48 7.48 0 0 1 3.33-2.96c2.84-1.06 5.9-.98 8.79-.38a35.5 35.5 0 0 1 8.27 3.07 86.87 86.87 0 0 1 7.65 4.39c1.25.77 2.46 1.6 3.71 2.36 1.26.73 2.57 1.4 3.95 1.84a7.6 7.6 0 0 0 4.24.3 3.47 3.47 0 0 0 1.77-1.1c.23-.27.42-.58.53-.9.1-.34.16-.7.05-1l.21-.1c.2.39.18.81.1 1.22-.08.4-.25.79-.47 1.14Z"/>
  </g>
  <defs>
    <clipPath id="a">
      <path fill="#fff" d="M31 61h225v56H31z"/>
    </clipPath>
  </defs>
</svg>