<svg width="44" height="44" viewBox="0 0 44 44" fill="none" xmlns="http://www.w3.org/2000/svg">
<g id="date-time-icon">
<g id="Group 221">
<path id="Vector" d="M44 8.46154V14.5385H0V8.46154C0 5.03856 2.78215 2.25641 6.20513 2.25641H11.2821V1.69231C11.2821 0.758154 12.0402 0 12.9744 0C13.9085 0 14.6667 0.758154 14.6667 1.69231V2.25641H29.3333V1.69231C29.3333 0.758154 30.0915 0 31.0256 0C31.9598 0 32.7179 0.758154 32.7179 1.69231V2.25641H37.7949C41.2178 2.25641 44 5.03856 44 8.46154ZM0 37.7949C0 41.2178 2.78215 44 6.20513 44H37.7949C41.2178 44 44 41.2178 44 37.7949V15.9231H0V37.7949Z" fill="#EC871B"/>
<path id="Vector_2" fill-rule="evenodd" clip-rule="evenodd" d="M22.0784 39.9998C22.1419 38.6502 22.2131 37.3 22.266 35.9502C22.2961 35.1861 22.136 35.0656 21.4019 35.1961C20.0378 35.4386 18.6716 35.6712 17.2655 35.9152C17.3981 35.5027 17.4998 35.1336 17.635 34.7777C17.7883 34.3746 17.6892 34.0411 17.3938 33.7632C16.9995 33.3923 16.5974 33.0282 16.1833 32.6802C15.2351 31.8832 14.2768 31.0985 13.3245 30.3065C13.2211 30.2205 13.1287 30.1211 13 29.9982C13.0965 29.9552 13.1458 29.9293 13.1978 29.9102C13.9089 29.6532 14.0358 29.4547 13.8508 28.7298C13.6223 27.8346 13.3582 26.949 13.0982 26.0202C13.6186 26.1921 14.1079 26.3608 14.6016 26.5154C15.5147 26.8012 15.9244 26.6368 16.3832 25.7874C16.4994 25.5727 16.5691 25.3326 16.6715 25.0762C17.584 25.9887 18.2836 27.1511 19.6088 27.8924C19.6088 27.4753 19.65 27.1867 19.6021 26.9138C19.3171 25.2957 19.0115 23.681 18.7127 22.0657C18.6939 21.9643 18.6755 21.8627 18.6529 21.7398C19.1132 22.052 19.5399 22.3546 19.9806 22.6356C20.3451 22.8675 20.6604 22.8108 20.8586 22.3987C21.3015 21.4781 21.7383 20.555 22.1756 19.6318C22.2596 19.4546 22.3341 19.2731 22.4541 19C22.7199 19.6023 22.9337 20.124 23.1781 20.6303C23.4673 21.2298 23.7858 21.8149 24.087 22.4087C24.2889 22.8067 24.5925 22.8412 24.9324 22.628C25.3737 22.3514 25.7969 22.0455 26.2595 21.7309C25.939 23.7448 25.3068 25.6856 25.4318 27.7499C26.6624 27.1214 27.3657 25.9857 28.2048 25.1085C28.4924 25.5293 28.7312 25.9874 29.0776 26.3389C29.2542 26.5185 29.6392 26.6034 29.9022 26.5604C30.3987 26.4794 30.875 26.2753 31.36 26.122C31.5008 26.0777 31.642 26.0337 31.8795 25.9594C31.7068 26.5441 31.5556 27.0398 31.4157 27.5383C31.3023 27.941 31.184 28.3438 31.1015 28.7537C30.9752 29.3829 31.106 29.5952 31.6983 29.8186C31.7797 29.8497 31.8592 29.8859 32 29.9448C31.2261 30.597 30.4939 31.209 29.7673 31.8278C29.1305 32.3697 28.5058 32.9264 27.8645 33.4622C27.3484 33.8932 27.1852 34.3932 27.4685 35.0266C27.5805 35.2769 27.654 35.5448 27.7695 35.8733C26.57 35.6772 25.4333 35.4916 24.296 35.3049C24.0069 35.2578 23.7195 35.1961 23.4288 35.1607C22.9214 35.0991 22.7357 35.2482 22.7478 35.7706C22.7616 36.3753 22.8288 36.9786 22.8661 37.5837C22.916 38.3888 22.9596 39.1943 23.0056 40C22.6966 39.9998 22.3874 39.9998 22.0784 39.9998ZM22.7024 32.5182C22.6402 30.1745 22.5809 27.9256 22.5213 25.6765C22.5033 25.6767 22.4854 25.6767 22.4673 25.6769C22.407 27.9393 22.3464 30.2012 22.284 32.5349C20.7051 31.8061 19.1888 31.1055 17.6719 30.405C18.8824 31.1925 20.1037 31.9533 21.379 32.6075C22.0711 32.962 22.5161 33.0495 22.2555 34.1692C22.2395 34.238 22.1829 34.3185 22.189 34.4036C22.355 34.4036 22.5625 34.3934 22.7903 34.3934C22.3718 33.2525 23.0581 32.8504 23.8417 32.4563C23.9654 32.3942 24.0796 32.3126 24.1971 32.2384C25.2351 31.5844 26.2726 30.93 27.3104 30.2759C27.2959 30.2485 27.2813 30.2218 27.2668 30.1947C25.7775 30.9528 24.2882 31.711 22.7024 32.5182Z" fill="#003366"/>
</g>
</g>
</svg>
