<svg width="44" height="44" viewBox="0 0 44 44" fill="none" xmlns="http://www.w3.org/2000/svg">
<g id="location-icon">
<g id="Group">
<g id="Group_2">
<path id="Vector" d="M7.22119 18.5935L0 16.3315V23.8865L3.94699 25.877L7.22119 18.5935Z" fill="#EC871B"/>
<path id="Vector_2" d="M0 25.4699V39.4037C0 39.6752 0.179409 39.9466 0.448522 39.9919L3.40876 40.8967L7.75943 29.27L0 25.4699Z" fill="#EC871B"/>
<path id="Vector_3" d="M5.2473 26.5104L8.92518 28.32C9.23915 28.501 9.41855 28.8629 9.284 29.2248L4.75391 41.3943L12.917 43.9729C13.0964 44.0182 13.3207 44.0182 13.4552 43.8825C13.6347 43.7468 13.7243 43.5658 13.7243 43.3849V20.6293L8.61121 19.0007L5.2473 26.5104Z" fill="#EC871B"/>
<path id="Vector_4" d="M3.85728 4.84062L0.807334 3.8906C0.762482 3.8906 0.672794 3.84537 0.627942 3.84537C0.493385 3.84537 0.358807 3.8906 0.269102 3.98108C0.0896935 4.1168 0 4.29775 0 4.47871V14.8386L3.63302 15.9696L3.85728 4.84062Z" fill="#EC871B"/>
<path id="Vector_5" d="M13.2762 7.78121L5.2477 5.2478L5.02344 16.422L8.38735 17.4625L13.6799 19.1364V8.36935C13.7248 8.09791 13.5453 7.87169 13.2762 7.78121Z" fill="#EC871B"/>
<path id="Vector_6" d="M27.8981 22.0317L22.157 10.6766C21.4394 9.27413 21.1703 7.60025 21.3497 5.97162L18.9277 6.7407L15.5638 7.78121C15.2946 7.87168 15.1152 8.09791 15.1152 8.36934V19.1816L22.5158 17.0553C22.7401 17.0101 22.9644 17.0554 23.1438 17.1911C23.3232 17.3268 23.4129 17.553 23.4129 17.7792V28.4557V28.501C23.4129 28.501 23.2783 30.582 24.6239 32.1202C25.521 33.1154 26.9562 33.7035 28.7952 33.794V22.9365C28.4363 22.7555 28.0775 22.4389 27.8981 22.0317Z" fill="#EC871B"/>
<path id="Vector_7" d="M21.4843 32.3011C21.8431 31.8939 22.2467 31.6677 22.6056 31.532C21.9328 30.0391 22.0225 28.6819 22.0225 28.4105V18.7292L15.1152 20.6745V43.3848C15.1152 43.611 15.2049 43.792 15.3843 43.8825C15.5637 44.0182 15.7432 44.0182 15.9226 43.9729L19.421 42.8872C19.1519 37.5489 19.8247 34.0202 21.4843 32.3011Z" fill="#EC871B"/>
<path id="Vector_8" d="M23.5921 33.0702C23.5024 32.9797 23.4127 32.8892 23.323 32.7535C23.0988 32.7987 22.7848 32.9797 22.426 33.3416C21.6635 34.2011 20.5422 36.4631 20.8113 42.3895L28.3465 40.0371C28.6156 39.9466 28.795 39.7204 28.795 39.4489V35.1964C26.5524 35.1059 24.8031 34.3821 23.5921 33.0702Z" fill="#EC871B"/>
<path id="Vector_9" d="M43.5067 7.78121L37.7208 5.97162C37.7656 6.2883 37.7656 6.60499 37.7656 6.92167C37.7656 8.18838 37.4517 9.45508 36.8686 10.6766C35.7921 12.8028 31.1724 21.9865 31.1275 22.077C30.9481 22.4389 30.6341 22.7555 30.2305 22.9365V33.8392C31.7106 33.8845 33.2356 34.0202 34.7605 34.2464V22.9818C34.7605 22.8008 34.8054 22.6651 34.9399 22.5294L38.8421 17.9601L39.784 16.8744L43.9552 11.9885V8.41457C43.9552 8.09789 43.7758 7.87168 43.5067 7.78121Z" fill="#EC871B"/>
<path id="Vector_10" d="M40.2778 18.4578L36.1963 23.2532V34.4726C39.2911 35.0155 42.1616 35.8298 44.0006 36.3727V14.1147L40.2778 18.4578Z" fill="#EC871B"/>
<path id="Vector_11" d="M30.2305 39.449C30.2305 39.7204 30.4099 39.9919 30.679 40.0371L43.1479 43.9277C43.3273 43.973 43.5516 43.973 43.6861 43.8373C43.8655 43.7015 43.9552 43.5205 43.9552 43.3396V37.8656C41.1744 37.006 35.3436 35.3774 30.2305 35.1964V39.449Z" fill="#EC871B"/>
<path id="Vector_12" d="M35.6125 3.80012C35.0294 2.57864 34.0875 1.62861 33.0559 0.995251C31.9794 0.361895 30.7684 0 29.5126 0C28.481 0 27.4494 0.226187 26.4626 0.723824C24.8479 1.53814 23.6369 2.98582 23.0539 4.75017C22.4708 6.51451 22.6053 8.41457 23.4127 9.99796L29.1538 21.3531C29.2435 21.5793 29.4229 21.5793 29.5126 21.5793C29.6023 21.5793 29.7817 21.5341 29.8714 21.3531C29.9162 21.2626 34.5809 12.1242 35.6125 9.99796C36.5992 8.00741 36.5992 5.79066 35.6125 3.80012ZM29.5126 10.8575C27.3597 10.8575 25.5656 9.09315 25.5656 6.87641C25.5656 4.7049 27.3148 2.89532 29.5126 2.89532C31.6655 2.89532 33.4596 4.65966 33.4596 6.87641C33.4596 9.09315 31.7103 10.8575 29.5126 10.8575Z" fill="#EC871B"/>
</g>
</g>
</g>
</svg>
