<svg xmlns="http://www.w3.org/2000/svg" width="233" height="58" fill="none">
  <g fill="currentColor" clip-path="url(#a)">
    <path d="M82.6592 37.6704v.8978h-5.4028v2.1912h4.4887v.9214h-4.4887v3.343h-.9083v-7.3534h6.3111Zm3.6684 0h-.9024v7.3593h.9024v-7.3593Zm4.5765 0 5.1391 6.0245v-6.0245h.9024v7.3534h-.9434l-5.1098-5.9595v5.9595H89.99v-7.3534h.9141Zm13.5889 0 3.586 7.3593h-.967l-1.189-2.4452h-4.061l-1.19 2.4452h-.9664l3.5864-7.3593h1.213-.012Zm-.545.9037h-.129l-1.541 3.1303h3.194l-1.524-3.1303Zm7.794-.9037 5.139 6.0245v-6.0245h.902v7.3534h-.949l-5.104-5.9595v5.9595h-.908v-7.3534h.92Zm9.721 5.6585c-.345-.6084-.515-1.2935-.515-2.0495 0-.8092.175-1.5002.533-2.0731.357-.5729.838-1.01 1.453-1.3053.615-.2953 1.313-.443 2.092-.443.563 0 1.096.0827 1.6.254.51.1654.943.437 1.312.8091.37.3721.604.8446.715 1.4235l-.779.3071c-.105-.4075-.305-.756-.604-1.0454-.293-.2894-.638-.5021-1.037-.6497a3.6471 3.6471 0 0 0-1.236-.2126c-.604 0-1.137.1122-1.6.3425-.463.2304-.826.567-1.09 1.01-.264.443-.392.9686-.392 1.5829s.134 1.1458.404 1.6065c.269.4607.644.821 1.125 1.0691.48.2539 1.02.3839 1.623.3839.451 0 .879-.0768 1.278-.2363.398-.1595.732-.3957 1.007-.7206.276-.3248.446-.7146.516-1.1812l.276.1181.486.1949c-.065.6438-.281 1.1695-.651 1.577-.369.4134-.82.7088-1.347.8978-.528.1831-1.09.2776-1.676.2776-.768 0-1.453-.1713-2.063-.5139-.609-.3426-1.084-.821-1.43-1.4293m11.193-5.6526h-.903v7.3593h.903v-7.3593Zm7.524 0 3.586 7.3593h-.967l-1.189-2.4452h-4.067l-1.19 2.4452h-.967l3.587-7.3593h1.213-.006Zm-.545.9037h-.129l-1.541 3.1303h3.193l-1.523-3.1303Zm7.788-.9037v6.4792h5.244v.8742h-6.153v-7.3534h.909Zm15.757 0c1.008 0 1.752.1831 2.238.5611.487.3721.727.8978.727 1.5829 0 .3662-.106.7265-.311 1.0809-.205.3543-.504.6437-.896.88-.387.2303-.844.3485-1.36.3485l-3.352.0177v2.8823h-.902v-7.3534h3.856Zm1.031 3.3607c.293-.124.51-.2953.668-.5079.152-.2127.229-.4489.229-.7088 0-.4134-.153-.7324-.463-.9509-.311-.2245-.78-.3308-1.418-.3308l-1.577.0118c-.369.006-.838.0119-1.412.0119v2.6696h2.948c.398 0 .738-.065 1.031-.189m5.713-3.3666v6.4792h5.245v.8742h-6.147v-7.3534h.902Zm12.224 0 3.586 7.3593h-.967l-1.189-2.4452h-4.067l-1.19 2.4452h-.966l3.586-7.3593h1.213-.006Zm-.545.9037h-.129l-1.541 3.1303h3.194l-1.524-3.1303Zm7.794-.9037 5.139 6.0245v-6.0245h.902v7.3534h-.943l-5.11-5.9595v5.9595h-.902v-7.3534h.914Zm10.641 0 5.145 6.0245v-6.0245h.903v7.3534h-.95l-5.104-5.9595v5.9595h-.908v-7.3534h.914Zm10.636 0h-.903v7.3593h.903v-7.3593Zm4.576 0 5.139 6.0245v-6.0245h.909v7.3534h-.95l-5.109-5.9595v5.9595h-.903v-7.3534h.914Zm9.739 5.6995c-.334-.5965-.498-1.2757-.498-2.0317 0-.8092.17-1.5062.504-2.0909.34-.5847.809-1.0336 1.413-1.3466.603-.3131 1.289-.4666 2.062-.4666.563 0 1.096.0827 1.6.254.51.1653.943.437 1.313.8091.369.3721.603.8505.714 1.4234l-.779.3131c-.105-.4076-.305-.756-.603-1.0454-.293-.2895-.639-.508-1.038-.6497a3.6472 3.6472 0 0 0-1.236-.2127c-.604 0-1.131.1241-1.582.3662-.452.2422-.797.5907-1.049 1.0454-.246.4548-.375.9864-.375 1.6007 0 .6142.129 1.1399.392 1.5947.264.4547.633.8032 1.102 1.0513.469.248 1.008.3721 1.611.3721.745 0 1.366-.2186 1.858-.6674.492-.443.791-1.0455.891-1.8015h-2.045v-.815h2.935v3.9572h-.65c0-.1949 0-.3426-.012-.4489 0-.4666-.011-.8741-.029-1.2226-.299.5906-.715 1.0632-1.248 1.4057-.533.3426-1.137.5139-1.811.5139-.773 0-1.459-.1654-2.057-.5021-.597-.3366-1.066-.8032-1.4-1.3998M77.655 27.3108c.2636 0 .3926-.1299.3926-.3957v-9.7809c0-.2599-.129-.3957-.3926-.3957h-1.9631v-.3957h14.3274v4.1462h-.3926c0-.6969-.1817-1.3348-.5392-1.9077-.3574-.5729-.8438-1.0277-1.4591-1.3526-.6152-.3248-1.2833-.4902-1.9982-.4902h-3.217c-.2637 0-.3926.1299-.3926.3957v4.5065h1.3946c.7969 0 1.4181-.2657 1.8634-.7914.4454-.5257.7208-1.1695.8204-1.9373h.3926v5.8473h-.3926c-.1055-.7619-.3809-1.4057-.8204-1.9373-.4453-.5257-1.0665-.7914-1.8634-.7914h-1.3946v4.8786c0 .2658.1289.3957.3926.3957h2.9416v.3957h-9.6629v-.3957h1.9631v.0059Zm17.4624-3.2367v-6.934c0-.2599-.1289-.3957-.3926-.3957h-1.9631v-.3958h8.6843v.3958h-1.9572c-.2637 0-.3926.1299-.3926.3957v7.2116c0 1.1458.3223 2.014.9728 2.5988.645.5847 1.441.88 2.379.88.774 0 1.465-.1417 2.08-.4252.616-.2836 1.096-.6911 1.442-1.2227.346-.5315.521-1.1517.521-1.8664v-4.979c0-.8564-.205-1.4943-.609-1.9136-.404-.4194-.897-.6497-1.471-.6733v-.3958h5.116v.3958c-.703.0413-1.307.2717-1.805.691-.498.4193-.744 1.0454-.744 1.8782v4.7841c0 1.3939-.457 2.4334-1.371 3.1127-.915.6792-2.174 1.0158-3.786 1.0158-1.9102 0-3.5041-.3071-4.7816-.9273-1.2833-.6142-1.922-1.6951-1.922-3.2189m18.9216 3.2249c.264 0 .392-.1299.392-.3957v-9.7809c0-.2599-.128-.3957-.392-.3957h-1.963v-.3957h8.684v.3957h-1.963c-.264 0-.393.1299-.393.3957v9.7809c0 .2658.129.3957.393.3957h3.762c.68 0 1.283-.1949 1.805-.5906.521-.3958.926-.9155 1.213-1.5534.287-.6379.434-1.3112.434-2.0259h.392v4.5656h-14.327v-.3957h1.963Zm16.917 0c.264 0 .393-.1299.393-.3957v-9.7809c0-.2599-.129-.3957-.393-.3957h-1.963v-.3957h8.685v.3957h-1.958c-.263 0-.392.1299-.392.3957v9.7809c0 .2658.129.3957.392.3957h3.762c.68 0 1.278-.1949 1.805-.5906.522-.3958.926-.9155 1.213-1.5534.287-.6379.434-1.3112.434-2.0259h.393v4.5656h-14.328v-.3957h1.963-.006Zm16.924 0c.263 0 .392-.1299.392-.3957v-9.7809c0-.2599-.129-.3957-.392-.3957h-1.963v-.3957h14.327v4.1462h-.393c0-.6969-.181-1.3348-.539-1.9077-.357-.5729-.844-1.0277-1.459-1.3526-.615-.3248-1.283-.4902-1.998-.4902h-3.217c-.264 0-.393.1299-.393.3957v4.5065h1.389c.797 0 1.418-.2657 1.863-.7914.446-.5257.721-1.1695.827-1.9373h.392v5.8473h-.392c-.106-.7619-.381-1.4057-.827-1.9373-.445-.5257-1.066-.7914-1.863-.7914h-1.389v4.8786c0 .2658.129.3957.393.3957h3.369c.68 0 1.319-.1949 1.911-.5906.597-.3958 1.066-.9155 1.412-1.5593.345-.6438.521-1.3171.521-2.0141h.393v4.5656h-14.327v-.3957h1.963Zm26.035-1.1045c-.152-.4371-.305-1.0041-.463-1.701-.17-.7501-.334-1.3112-.492-1.6892-.158-.3721-.387-.5966-.686-.6616-.433-.1063-1.066-.1594-1.898-.1594l-.762.0177v4.9022c0 .2658.129.3958.392.3958h1.958v.3957h-8.685v-.3957h1.963c.264 0 .393-.13.393-.3958v-9.7808c0-.2599-.129-.3957-.393-.3957h-1.963v-.3958h5.802l3.902-.1181c1.934 0 3.352.254 4.254.7678.903.5139 1.354 1.2344 1.354 2.1558 0 .6615-.123 1.1872-.375 1.5888-.246.4017-.65.7029-1.207.9096s-1.313.3367-2.262.3839v.1359c.51.0649.943.2362 1.301.502.357.2717.656.5847.885.9391.228.3544.486.8151.773 1.3821.276.5256.51.9391.703 1.2462.194.3012.44.5552.727.7619.287.2008.633.3013 1.037.3013h.493v.3957c-1.19.0531-2.807.0768-4.864.0768-.498 0-.897-.1536-1.207-.4666-.305-.3072-.539-.6793-.686-1.1163m-.117-5.1858c.439-.3898.656-1.01.656-1.8664 0-1.6478-.926-2.4688-2.783-2.4688-.539 0-.926.0118-1.166.0295-.241.0177-.411.0295-.498.0295-.264 0-.393.13-.393.3958v4.4651h1.922c1.072 0 1.828-.1949 2.262-.5847Zm13.179 6.308c.263 0 .392-.13.392-.3958V16.7384h-.293c-.703.0414-1.435.2954-2.185.762s-1.377 1.0454-1.87 1.7423c-.498.6911-.744 1.3703-.744 2.0436h-.392v-4.9377h14.954v4.9377h-.393c0-.6969-.263-1.3998-.785-2.1026-.521-.7088-1.172-1.2876-1.951-1.7483-.78-.4607-1.524-.691-2.245-.691h-.117v10.1765c0 .2658.129.3958.393.3958h2.156v.3957h-9.077v-.3957h2.157v-.0059Zm13.518-2.1501c-.621-.9509-.931-1.9845-.931-3.1008s.31-2.1558.931-3.1127c.622-.9568 1.501-1.7128 2.637-2.2798 1.137-.567 2.438-.8505 3.903-.8505 1.465 0 2.76.2835 3.891.8505 1.131.567 2.004 1.3289 2.625 2.2798.621.9569.932 1.9964.932 3.1127 0 1.1163-.311 2.1558-.932 3.1008-.621.945-1.494 1.7069-2.625 2.2739-1.131.567-2.426.8505-3.891.8505-1.465 0-2.766-.2835-3.903-.8505-1.136-.567-2.015-1.3289-2.637-2.2739Zm9.658-3.1008c0-1.6361-.264-3.0123-.786-4.1404-.521-1.1281-1.301-1.6892-2.332-1.6892s-1.828.5611-2.35 1.6892c-.521 1.1222-.785 2.5043-.785 4.1404 0 1.636.264 3.0122.785 4.1403.522 1.1281 1.307 1.6892 2.35 1.6892 1.043 0 1.811-.5611 2.332-1.6892.522-1.1281.786-2.5043.786-4.1403Zm9.27 2.6639c0 .8564.24 1.4943.715 1.9195.474.4253 1.06.6438 1.752.6734v.3957h-5.702v-.3957c.774-.0414 1.424-.2658 1.951-.6911.528-.4193.792-1.0454.792-1.8782V17.713c-.417-.4194-.809-.691-1.167-.7974-.357-.1122-.755-.1712-1.183-.1712v-.3958h6.352l7.038 6.1426v-3.1599c0-.8564-.206-1.4943-.61-1.9136-.404-.4194-.896-.6497-1.471-.6733v-.3958H233v.3958c-.703.0413-1.307.2716-1.805.691-.498.4193-.744 1.0454-.744 1.8782v8.7709h-.352l-10.682-9.9167v6.556ZM33.3602 0C14.9368 0 0 15.0552 0 33.6246 0 43.2224 3.9964 51.8752 10.3954 58c3.6624-1.9786 8.1101-3.5024 13.0616-4.412.0293-.4016.0821-.8387.1524-1.323.211-1.3703.5098-2.8764.9024-4.5125.3926-1.636.8673-3.278 1.424-4.9317.5567-1.6538.9317-2.5634 1.5353-3.8805.1816-.4134.0937-.6969-.2813-.8446-.3692-.1476-.7618-.2244-1.1837-.2244-.2754 0-.5333.0295-.7677.0827-.2344.059-.4277.1122-.5918.1713-.1641.0531-.2754.0767-.3457.0531-.0704-.0177-.0821-.1004-.0352-.254.0938-.4134.5977-1.3053 1.1075-1.5297.5098-.2244 1.3009-.4312 2.3674-.6202.5098-.1122.8907-.2244 1.1485-.3366.252-.1122.5216-.4312.8028-.9568.7384-1.2049 1.5881-2.4984 2.5374-3.8923a126.3087 126.3087 0 0 1 3.0237-4.2289c.4629-.5257.4863-.7678.0703-.7324-.4161.0354-.9493.1713-1.5998.3957-.3223.1122-.5449.1772-.6973.1831-.1406 0-.2871.0532-.4453-.3426-.0411-.1063.0117-.3366.1054-.4488.0938-.1123.2344-.189.4161-.2245 1.2071-.4489 2.1154-1.1104 3.2288-1.8959 1.1133-.7855 1.9923-1.4116 2.6428-1.8605.2812-.189.7618-.3189 1.0079-.313 1.2657.0472 1.6114.8328 1.7521 1.0159.1406.189.1992.4252.1758.7028-.0235.2835-.1758.5552-.4512.8151-.2813.3012-.7911.8151-1.5295 1.5474-.7442.7324-1.5528 1.6184-2.4377 2.652a66.2713 66.2713 0 0 0-2.7131 3.4138c-.9317 1.2404-1.7169 2.4984-2.3674 3.7742-.1875.378-.2461.6024-.1758.6792.0703.0768.3575.1476.8673.2244 1.1134.1477 2.3732.2422 3.7913.2835 1.4122.0355 2.8186.0591 4.2074.0591 1.3888 0 2.6662-.0059 3.8265-.0295 1.1602-.0178 2.0392-.0296 2.6428-.0296.6973 0 1.0606.0945.9727.2245-.164.2539-.5449.3071-1.2071.4429-.6094.1241-1.3888.319-2.9299.508-1.3361.1654-2.8479.2599-4.4008.2776-1.5529.0177-3.0706.0354-4.559.059-1.4825.0178-2.6662.0473-3.5452.0827-.5098 0-.879.0827-1.1134.254-.2344.1713-.416.4607-.5567.8741-.5566 1.1636-.9024 2.0082-1.4825 3.343s-1.0899 2.6697-1.5294 4.0045-.7911 2.6283-1.0431 3.8863c-.2227 1.0986-.3047 2.0968-.2637 3.0123 2.6077-.3603 5.3325-.5493 8.1452-.5493 8.7488 0 16.7241 1.8487 22.7598 4.8786 6.1059-6.0953 9.8856-14.5473 9.8856-23.8851C66.7204 15.0552 51.7836 0 33.3602 0Zm24.4474 22.3849c-.4864.7265-1.2364 1.2581-2.0451 1.5829-1.6525.632-3.4163.4666-5.0102.1181-1.6056-.378-3.094-1.0158-4.5297-1.7128-.7207-.3485-1.4181-.7619-2.0568-1.1222l-1.9689-1.1045-3.9496-2.144c-1.3126-.6969-2.6369-1.3584-3.9729-1.9609-2.6487-1.2403-5.3442-2.3211-8.0515-2.8527-1.3478-.3012-2.6955-.4725-4.014-.4548-.6622 0-1.3126.065-1.9572.1595-.3223.0472-.6387.1122-.9552.189-.293.0709-.5156.1181-.7676.2185-.9786.3662-1.881 1.1045-2.549 2.0849-.6563.9805-1.1193 2.1559-1.2658 3.3726-.3047 2.4393.7559 4.9435 3.0823 6.3433 1.1251.7383 2.4905 1.2049 3.9203 1.518 1.4298.3071 2.9358.4429 4.4593.4902l.0293.2421c-1.5118.1772-3.0412.2481-4.5648.1004-1.5177-.1417-3.0413-.4961-4.4184-1.193-1.377-.6852-2.5959-1.7542-3.3752-3.1127-.7853-1.3525-1.1251-2.9413-1.049-4.5006.0762-1.5592.5567-3.0949 1.3771-4.4179.8204-1.323 2.0099-2.4452 3.4515-3.0654 2.9358-1.0926 6.1177-1.0099 9.1004-.3957 3.0002.6438 5.8422 1.831 8.5671 3.1835 2.7307 1.3585 5.35 2.9177 7.9225 4.542 1.2892.8032 2.5491 1.6655 3.8441 2.4452 1.3009.7619 2.6545 1.4529 4.0843 1.9077 1.4181.4548 2.9534.7029 4.3891.319.7031-.2009 1.3712-.5789 1.84-1.1459.2343-.2776.4277-.5965.5449-.9391.1114-.3425.17-.7264.0469-1.0336l.2227-.1004c.2051.4016.1875.8446.1113 1.264-.0879.4134-.2637.815-.4981 1.1812l.0059-.0059Z"/>
  </g>
  <defs>
    <clipPath id="a">
      <path fill="#fff" d="M0 0h233v58H0z"/>
    </clipPath>
  </defs>
</svg>