<svg xmlns="http://www.w3.org/2000/svg" width="38" height="38" fill="none">
  <path fill="#669" d="M31.35 0H6.65A6.66 6.66 0 0 0 0 6.65V24.7a6.66 6.66 0 0 0 6.65 6.65h5.22v5.7a.95.95 0 0 0 1.63.67l6.37-6.37h11.48A6.66 6.66 0 0 0 38 24.7V6.65A6.66 6.66 0 0 0 31.35 0ZM19 25.6a1.42 1.42 0 1 1 0-2.85 1.42 1.42 0 0 1 0 2.85Zm1.67-7.81c-.43.1-.72.49-.72 1.92v.19a.95.95 0 0 1-1.9 0v-1.2c0-1.3.88-2.43 2.14-2.75a4.78 4.78 0 0 0 3.56-4.79 4.82 4.82 0 0 0-4.56-4.56 4.71 4.71 0 0 0-4.94 4.75.95.95 0 0 1-1.9 0 6.6 6.6 0 0 1 2.04-4.8 6.67 6.67 0 0 1 11.26 4.53 6.7 6.7 0 0 1-4.98 6.7Z"/>
  <path fill="#669" d="M31.35 0H6.65A6.66 6.66 0 0 0 0 6.65V24.7a6.66 6.66 0 0 0 6.65 6.65h5.22v5.7a.95.95 0 0 0 1.63.67l6.37-6.37h11.48A6.66 6.66 0 0 0 38 24.7V6.65A6.66 6.66 0 0 0 31.35 0Z"/>
  <path fill="#E0E0EB" d="M18.5 24c-.65 0-1.18-.49-1.18-1.1 0-.6.53-1.08 1.18-1.08.65 0 1.18.49 1.18 1.09 0 .6-.53 1.09-1.18 1.09Zm1.38-6.98c-.88.48-.6 1.37-.6 2.47v.15c0 .4-.35.72-.78.72-.43 0-.79-.32-.79-.72v-1.92c0-1 .73-1.86 1.78-2.1a3.7 3.7 0 0 0 2.94-3.67c-.08-1.86-1.77-3.42-3.78-3.5a4.07 4.07 0 0 0-2.87 1.02c-.78.7-1.2 1.62-1.2 2.62 0 .4-.36.73-.8.73-.43 0-.78-.33-.78-.73 0-1.4.6-2.7 1.69-3.67A5.7 5.7 0 0 1 18.7 7c2.86.1 5.18 2.25 5.29 4.9a5.2 5.2 0 0 1-4.12 5.12Z"/>
</svg>