<svg width="38" height="38" viewBox="0 0 38 38" fill="none" xmlns="http://www.w3.org/2000/svg">
<g id="work-balance-icon">
<g id="06-Summer">
<path id="Vector" d="M30.4 6.33333C30.568 6.33333 30.7291 6.26661 30.8478 6.14783C30.9666 6.02906 31.0333 5.86797 31.0333 5.7V0.633333C31.0333 0.465363 30.9666 0.304272 30.8478 0.185499C30.7291 0.066726 30.568 0 30.4 0C30.232 0 30.0709 0.066726 29.9522 0.185499C29.8334 0.304272 29.7667 0.465363 29.7667 0.633333V5.7C29.7667 5.86797 29.8334 6.02906 29.9522 6.14783C30.0709 6.26661 30.232 6.33333 30.4 6.33333Z" fill="#666699"/>
<path id="Vector_2" d="M22.8 6.33333C22.968 6.33333 23.1291 6.26661 23.2478 6.14783C23.3666 6.02906 23.4333 5.86797 23.4333 5.7V0.633333C23.4333 0.465363 23.3666 0.304272 23.2478 0.185499C23.1291 0.066726 22.968 0 22.8 0C22.632 0 22.4709 0.066726 22.3522 0.185499C22.2334 0.304272 22.1667 0.465363 22.1667 0.633333V5.7C22.1667 5.86797 22.2334 6.02906 22.3522 6.14783C22.4709 6.26661 22.632 6.33333 22.8 6.33333Z" fill="#666699"/>
<path id="Vector_3" d="M15.2 6.33333C15.368 6.33333 15.5291 6.26661 15.6478 6.14783C15.7666 6.02906 15.8333 5.86797 15.8333 5.7V0.633333C15.8333 0.465363 15.7666 0.304272 15.6478 0.185499C15.5291 0.066726 15.368 0 15.2 0C15.032 0 14.871 0.066726 14.7522 0.185499C14.6334 0.304272 14.5667 0.465363 14.5667 0.633333V5.7C14.5667 5.86797 14.6334 6.02906 14.7522 6.14783C14.871 6.26661 15.032 6.33333 15.2 6.33333Z" fill="#666699"/>
<path id="Vector_4" d="M7.59998 6.33333C7.76795 6.33333 7.92904 6.26661 8.04781 6.14783C8.16658 6.02906 8.23331 5.86797 8.23331 5.7V0.633333C8.23331 0.465363 8.16658 0.304272 8.04781 0.185499C7.92904 0.066726 7.76795 0 7.59998 0C7.43201 0 7.27092 0.066726 7.15214 0.185499C7.03337 0.304272 6.96664 0.465363 6.96664 0.633333V5.7C6.96664 5.86797 7.03337 6.02906 7.15214 6.14783C7.27092 6.26661 7.43201 6.33333 7.59998 6.33333Z" fill="#666699"/>
<path id="Vector_5" d="M36.1 3.16675H32.3V5.70008C32.3 6.20399 32.0998 6.68727 31.7435 7.04358C31.3872 7.3999 30.9039 7.60008 30.4 7.60008C29.8961 7.60008 29.4128 7.3999 29.0565 7.04358C28.7002 6.68727 28.5 6.20399 28.5 5.70008V3.16675H24.7V5.70008C24.7 6.20399 24.4998 6.68727 24.1435 7.04358C23.7872 7.3999 23.3039 7.60008 22.8 7.60008C22.2961 7.60008 21.8128 7.3999 21.4565 7.04358C21.1002 6.68727 20.9 6.20399 20.9 5.70008V3.16675H17.1V5.70008C17.1 6.20399 16.8998 6.68727 16.5435 7.04358C16.1872 7.3999 15.7039 7.60008 15.2 7.60008C14.6961 7.60008 14.2128 7.3999 13.8565 7.04358C13.5002 6.68727 13.3 6.20399 13.3 5.70008V3.16675H9.5V5.70008C9.5 6.20399 9.29982 6.68727 8.9435 7.04358C8.58718 7.3999 8.10391 7.60008 7.6 7.60008C7.09609 7.60008 6.61282 7.3999 6.2565 7.04358C5.90018 6.68727 5.7 6.20399 5.7 5.70008V3.16675H1.9C1.39609 3.16675 0.912816 3.36693 0.556497 3.72325C0.200178 4.07956 0 4.56284 0 5.06675V10.1334H38V5.06675C38 4.56284 37.7998 4.07956 37.4435 3.72325C37.0872 3.36693 36.6039 3.16675 36.1 3.16675Z" fill="#666699"/>
<path id="Vector_6" d="M0 11.4V36.1C0 36.6039 0.200178 37.0872 0.556497 37.4435C0.912816 37.7998 1.39609 38 1.9 38H36.1C36.6039 38 37.0872 37.7998 37.4435 37.4435C37.7998 37.0872 38 36.6039 38 36.1V11.4H0ZM23.4777 18.6897L25.27 16.9037C25.3268 16.8374 25.3966 16.7835 25.4752 16.7455C25.5538 16.7075 25.6394 16.6862 25.7266 16.6828C25.8138 16.6794 25.9008 16.6941 25.9821 16.726C26.0633 16.7578 26.1372 16.8061 26.1989 16.8678C26.2606 16.9295 26.3089 17.0033 26.3407 17.0846C26.3726 17.1659 26.3873 17.2529 26.3839 17.3401C26.3805 17.4273 26.3592 17.5129 26.3212 17.5915C26.2831 17.67 26.2293 17.7399 26.163 17.7967L24.377 19.589C24.3178 19.6477 24.2476 19.6942 24.1705 19.7257C24.0933 19.7572 24.0107 19.7732 23.9273 19.7727C23.844 19.7732 23.7614 19.7572 23.6842 19.7257C23.607 19.6942 23.5368 19.6477 23.4777 19.589C23.4183 19.5301 23.3712 19.4601 23.339 19.3829C23.3069 19.3057 23.2903 19.223 23.2903 19.1394C23.2903 19.0558 23.3069 18.973 23.339 18.8958C23.3712 18.8186 23.4183 18.7486 23.4777 18.6897ZM18.3667 14.5667C18.3667 14.3987 18.4334 14.2376 18.5522 14.1189C18.6709 14.0001 18.832 13.9334 19 13.9334C19.168 13.9334 19.3291 14.0001 19.4478 14.1189C19.5666 14.2376 19.6333 14.3987 19.6333 14.5667V17.1C19.6333 17.268 19.5666 17.4291 19.4478 17.5479C19.3291 17.6666 19.168 17.7334 19 17.7334C18.832 17.7334 18.6709 17.6666 18.5522 17.5479C18.4334 17.4291 18.3667 17.268 18.3667 17.1V14.5667ZM11.837 16.9037C11.9557 16.7857 12.1162 16.7195 12.2835 16.7195C12.4508 16.7195 12.6113 16.7857 12.73 16.9037L14.5223 18.6897C14.5817 18.7486 14.6288 18.8186 14.661 18.8958C14.6931 18.973 14.7097 19.0558 14.7097 19.1394C14.7097 19.223 14.6931 19.3057 14.661 19.3829C14.6288 19.4601 14.5817 19.5301 14.5223 19.589C14.4632 19.6477 14.393 19.6942 14.3158 19.7257C14.2386 19.7572 14.156 19.7732 14.0727 19.7727C13.9893 19.7732 13.9067 19.7572 13.8295 19.7257C13.7524 19.6942 13.6822 19.6477 13.623 19.589L11.837 17.7967C11.719 17.678 11.6528 17.5175 11.6528 17.3502C11.6528 17.1829 11.719 17.0224 11.837 16.9037ZM8.86667 24.0667C8.86667 23.8987 8.93339 23.7376 9.05217 23.6189C9.17094 23.5001 9.33203 23.4334 9.5 23.4334H12.0333C12.2013 23.4334 12.3624 23.5001 12.4812 23.6189C12.5999 23.7376 12.6667 23.8987 12.6667 24.0667C12.6667 24.2347 12.5999 24.3958 12.4812 24.5145C12.3624 24.6333 12.2013 24.7 12.0333 24.7H9.5C9.33203 24.7 9.17094 24.6333 9.05217 24.5145C8.93339 24.3958 8.86667 24.2347 8.86667 24.0667ZM14.5223 29.4437L12.73 31.2297C12.6113 31.3477 12.4508 31.4139 12.2835 31.4139C12.1162 31.4139 11.9557 31.3477 11.837 31.2297C11.719 31.111 11.6528 30.9505 11.6528 30.7832C11.6528 30.6159 11.719 30.4554 11.837 30.3367L13.623 28.5444C13.7423 28.4251 13.904 28.3581 14.0727 28.3581C14.2413 28.3581 14.4031 28.4251 14.5223 28.5444C14.6416 28.6636 14.7086 28.8254 14.7086 28.994C14.7086 29.1627 14.6416 29.3244 14.5223 29.4437ZM19.6333 33.5667C19.6333 33.7347 19.5666 33.8958 19.4478 34.0145C19.3291 34.1333 19.168 34.2 19 34.2C18.832 34.2 18.6709 34.1333 18.5522 34.0145C18.4334 33.8958 18.3667 33.7347 18.3667 33.5667V31.0334C18.3667 30.8654 18.4334 30.7043 18.5522 30.5855C18.6709 30.4667 18.832 30.4 19 30.4C19.168 30.4 19.3291 30.4667 19.4478 30.5855C19.5666 30.7043 19.6333 30.8654 19.6333 31.0334V33.5667ZM19 29.1334C17.9979 29.1334 17.0183 28.8362 16.1851 28.2795C15.3519 27.7227 14.7025 26.9314 14.319 26.0056C13.9355 25.0798 13.8352 24.0611 14.0307 23.0782C14.2262 22.0954 14.7087 21.1926 15.4173 20.484C16.1259 19.7754 17.0287 19.2929 18.0115 19.0974C18.9944 18.9019 20.0131 19.0022 20.9389 19.3857C21.8647 19.7692 22.656 20.4186 23.2128 21.2518C23.7695 22.085 24.0667 23.0646 24.0667 24.0667C24.0667 25.4105 23.5329 26.6992 22.5827 27.6494C21.6325 28.5995 20.3438 29.1334 19 29.1334ZM26.163 31.2297C26.0443 31.3477 25.8838 31.4139 25.7165 31.4139C25.5492 31.4139 25.3887 31.3477 25.27 31.2297L23.4777 29.4437C23.3584 29.3244 23.2914 29.1627 23.2914 28.994C23.2914 28.8254 23.3584 28.6636 23.4777 28.5444C23.5969 28.4251 23.7587 28.3581 23.9273 28.3581C24.096 28.3581 24.2577 28.4251 24.377 28.5444L26.163 30.3367C26.281 30.4554 26.3472 30.6159 26.3472 30.7832C26.3472 30.9505 26.281 31.111 26.163 31.2297ZM28.5 24.7H25.9667C25.7987 24.7 25.6376 24.6333 25.5188 24.5145C25.4001 24.3958 25.3333 24.2347 25.3333 24.0667C25.3333 23.8987 25.4001 23.7376 25.5188 23.6189C25.6376 23.5001 25.7987 23.4334 25.9667 23.4334H28.5C28.668 23.4334 28.8291 23.5001 28.9478 23.6189C29.0666 23.7376 29.1333 23.8987 29.1333 24.0667C29.1333 24.2347 29.0666 24.3958 28.9478 24.5145C28.8291 24.6333 28.668 24.7 28.5 24.7ZM19 20.2667C18.2484 20.2667 17.5137 20.4896 16.8888 20.9071C16.2639 21.3247 15.7769 21.9181 15.4893 22.6125C15.2016 23.3069 15.1264 24.0709 15.273 24.808C15.4196 25.5452 15.7816 26.2223 16.313 26.7537C16.8444 27.2851 17.5215 27.6471 18.2587 27.7937C18.9958 27.9403 19.7598 27.865 20.4542 27.5774C21.1486 27.2898 21.742 26.8028 22.1596 26.1779C22.5771 25.5529 22.8 24.8183 22.8 24.0667C22.8 23.0589 22.3996 22.0923 21.687 21.3797C20.9744 20.667 20.0078 20.2667 19 20.2667Z" fill="#666699"/>
</g>
</g>
</svg>
