<svg width="38" height="26" viewBox="0 0 38 26" fill="none" xmlns="http://www.w3.org/2000/svg">
<g id="finacial-icon">
<g id="Group 219">
<path id="Vector" d="M10.1333 19C10.83 19 11.4 18.43 11.4 17.7333C11.4 17.0367 10.83 16.4667 10.1333 16.4667V19Z" fill="#666699"/>
<path id="Vector_2" d="M7.6 13.9333C7.6 14.63 8.17 15.2 8.86667 15.2V12.6666C8.17 12.6666 7.6 13.2366 7.6 13.9333Z" fill="#666699"/>
<path id="Vector_3" d="M3.8 6.33337V25.3334H38V6.33337H3.8ZM12.6667 17.7334C12.6667 19.1267 11.5267 20.2667 10.1333 20.2667V21.5334H8.86667V20.2667C7.47334 20.2667 6.33334 19.1267 6.33334 17.7334H7.6C7.6 18.43 8.17 19 8.86667 19V16.4667C7.47334 16.4667 6.33334 15.3267 6.33334 13.9334C6.33334 12.54 7.47334 11.4 8.86667 11.4V10.1334H10.1333V11.4C11.5267 11.4 12.6667 12.54 12.6667 13.9334H11.4C11.4 13.2367 10.83 12.6667 10.1333 12.6667V15.2C11.5267 15.2 12.6667 16.34 12.6667 17.7334ZM35.4667 21.5334H13.9333V20.2667H35.4667V21.5334Z" fill="#666699"/>
<path id="Vector_4" d="M0 0V19H2.53333V5.06667H34.2V0H0Z" fill="#666699"/>
</g>
</g>
</svg>
