<svg width="39" height="33" viewBox="0 0 39 33" fill="none" xmlns="http://www.w3.org/2000/svg">
<path id="Vector" d="M28.7432 0.000777937C25.7602 -0.01627 22.5934 3.11229 19.8209 5.5723C19.6405 5.71767 19.3595 5.71767 19.1791 5.5723C16.5658 3.46843 12.9955 0.000777937 9.74324 0.000777937C4.84775 0.000777937 0.5 3.35985 0.5 9.30285C0.5 12.9375 3.08168 16.7312 6.83868 20.7044C10.4925 24.5684 15.2092 28.5867 19.5 32.8649C23.7908 28.5867 28.5075 24.5684 32.1613 20.7044C33.4978 19.2909 34.6839 17.9066 35.6596 16.5378H33.8784C33.706 16.5378 33.5367 16.4426 33.4451 16.2955L31.5194 13.211L29.7542 20.7851C29.6947 21.0045 29.4827 21.1763 29.2568 21.1727C29.0308 21.1675 28.8118 20.9902 28.7593 20.7689L26.3041 9.25439L24.6351 22.287C24.6105 22.5277 24.3937 22.7399 24.1537 22.7552C23.9137 22.7707 23.6788 22.5873 23.6242 22.3516L21.6343 15.1328L20.511 20.7689C20.4273 21.1877 19.7379 21.2802 19.5481 20.8981L17.6385 17.0545H13.4983C13.2849 17.6531 12.7223 18.0881 12.0541 18.0881C11.2032 18.0881 10.5135 17.3941 10.5135 16.5378C10.5135 15.6815 11.2032 14.9874 12.0541 14.9874C12.7276 14.9874 13.289 15.4149 13.4983 16.021H17.9595C18.1487 16.0159 18.3361 16.1272 18.4248 16.2955L19.8049 19.0894L21.0566 12.8072C21.1053 12.5849 21.3118 12.4108 21.538 12.4035C21.7642 12.3963 21.9888 12.5562 22.0515 12.775L23.9291 19.59L25.6622 6.12144C25.701 5.84945 25.9867 5.63968 26.2559 5.6854C26.458 5.7195 26.6311 5.88722 26.6731 6.08906L29.2728 18.3304L30.8133 11.7575C30.9141 11.3708 31.5316 11.2743 31.7441 11.6122L34.1672 15.5042H36.3497C37.7016 13.3838 38.5 11.3217 38.5 9.30285C38.2356 3.6974 33.8497 -0.0621443 28.7432 0.000777937Z" fill="#666699"/>
</svg>
