<svg width="56" height="50" viewBox="0 0 56 50" fill="none" xmlns="http://www.w3.org/2000/svg">
<path d="M35.8081 42.1548H20.9319V45.8738C20.9319 46.6176 21.4278 47.1135 22.1716 47.1135H23.4113L25.6427 49.345C25.6427 49.5929 26.1386 49.5929 26.3865 49.5929H30.3535C30.6014 49.5929 31.0973 49.345 31.3452 49.345L33.3287 47.1135H34.5684C35.3122 47.1135 35.8081 46.6176 35.8081 45.8738V42.1548Z" fill="#666699"/>
<path d="M28.122 0.00565843C18.9484 0.00565843 11.2623 7.6917 11.0144 16.6174C10.7665 22.8158 13.7417 28.2705 18.4525 31.4936C19.9401 32.4854 20.9319 34.2209 20.9319 35.9565V37.1962H25.8906V14.8819H30.8493V37.1962H35.8081V35.9565C35.8081 34.2209 36.7998 32.4854 38.2874 31.4936C42.7503 28.2705 45.7255 23.0638 45.7255 17.1133C45.7255 7.6917 37.7916 -0.242278 28.122 0.00565843ZM28.37 9.92313C26.8823 9.92313 25.8906 8.68344 25.8906 7.44376C25.8906 6.20408 26.8823 4.96439 28.37 4.96439C29.8576 4.96439 30.8493 5.95614 30.8493 7.44376C30.8493 8.93138 29.8576 9.92313 28.37 9.92313Z" fill="#666699"/>
</svg>
