<svg width="56" height="50" viewBox="0 0 56 50" fill="none" xmlns="http://www.w3.org/2000/svg">
<path d="M45.1925 4.959H40.2335V2.4795C40.2335 0.9918 39.2417 0 37.754 0C36.2663 0 35.2745 0.9918 35.2745 2.4795V4.959H30.3155V2.4795C30.3155 0.9918 29.3237 0 27.836 0C26.3483 0 25.3565 0.9918 25.3565 2.4795V4.959H20.3975V2.4795C20.3975 0.9918 19.4057 0 17.918 0C16.4303 0 15.4385 0.9918 15.4385 2.4795V4.959H10.4795C8.9918 4.959 8 5.9508 8 7.4385V47.1105C8 48.5982 8.9918 49.59 10.4795 49.59H45.1925C46.6802 49.59 47.672 48.5982 47.672 47.1105V7.4385C47.672 5.9508 46.6802 4.959 45.1925 4.959ZM30.3155 39.672H15.4385C13.9508 39.672 12.959 38.6802 12.959 37.1925C12.959 35.7048 13.9508 34.713 15.4385 34.713H30.3155C31.8032 34.713 32.795 35.7048 32.795 37.1925C32.795 38.6802 31.8032 39.672 30.3155 39.672ZM40.2335 29.754H15.4385C13.9508 29.754 12.959 28.7622 12.959 27.2745C12.959 25.7868 13.9508 24.795 15.4385 24.795H40.2335C41.7212 24.795 42.713 25.7868 42.713 27.2745C42.713 28.7622 41.7212 29.754 40.2335 29.754ZM40.2335 19.836H15.4385C13.9508 19.836 12.959 18.8442 12.959 17.3565C12.959 15.8688 13.9508 14.877 15.4385 14.877H40.2335C41.7212 14.877 42.713 15.8688 42.713 17.3565C42.713 18.8442 41.7212 19.836 40.2335 19.836Z" fill="#666699"/>
</svg>
