<svg width="56" height="50" viewBox="0 0 56 50" fill="none" xmlns="http://www.w3.org/2000/svg">
<path d="M50.6264 12.9121C50.6264 12.4131 50.3769 12.1636 49.8779 11.9141L28.6696 0.187132C28.6696 -0.0623774 28.1705 -0.0623774 27.6715 0.187132L6.71273 12.1636C6.46322 12.1636 6.21371 12.6626 6.21371 12.9121C5.71469 17.1538 4.21763 41.6057 27.921 49.59C28.1705 49.59 28.42 49.59 28.6696 49.59C52.6225 41.6057 51.1254 17.1538 50.6264 12.9121ZM39.8975 21.8945L27.6715 34.1204C26.6735 35.1185 25.1764 35.1185 24.1784 34.1204L19.4377 29.3797C18.4397 28.3817 18.4397 26.8846 19.4377 25.8866C20.4357 24.8886 21.9328 24.8886 22.9308 25.8866L25.925 28.6312L36.4043 18.1518C37.4024 17.1538 38.8994 17.1538 39.8975 18.1518C40.8955 19.1498 40.8955 20.8964 39.8975 21.8945Z" fill="#666699"/>
</svg>
