<svg width="56" height="50" viewBox="0 0 56 50" fill="none" xmlns="http://www.w3.org/2000/svg">
<path d="M49.3793 1H6.50071C4.77707 1.00148 3.12445 1.68685 1.90565 2.90565C0.686849 4.12445 0.00147973 5.77707 0 7.50071V35.478C0.00147973 37.2016 0.686849 38.8542 1.90565 40.073C3.12445 41.2918 4.77707 41.9772 6.50071 41.9787H7.45067V47.5667C7.45067 48.0607 7.64691 48.5345 7.99623 48.8838C8.34555 49.2331 8.81932 49.4293 9.31333 49.4293C9.55003 49.43 9.78464 49.3851 10.0044 49.2971L28.2976 41.9787H49.3793C51.1029 41.9772 52.7556 41.2918 53.9744 40.073C55.1932 38.8542 55.8785 37.2016 55.88 35.478V7.50071C55.8785 5.77707 55.1932 4.12445 53.9744 2.90565C52.7556 1.68685 51.1029 1.00148 49.3793 1ZM26.0773 19.6267H29.8027C31.2847 19.6267 32.706 20.2154 33.754 21.2634C34.8019 22.3113 35.3907 23.7326 35.3907 25.2147C35.3907 26.6967 34.8019 28.118 33.754 29.166C32.706 30.2139 31.2847 30.8027 29.8027 30.8027V32.6653C29.8027 33.1593 29.6064 33.6331 29.2571 33.9824C28.9078 34.3318 28.434 34.528 27.94 34.528C27.446 34.528 26.9722 34.3318 26.6229 33.9824C26.2736 33.6331 26.0773 33.1593 26.0773 32.6653V30.8027H22.352C21.858 30.8027 21.3842 30.6064 21.0349 30.2571C20.6856 29.9078 20.4893 29.434 20.4893 28.94C20.4893 28.446 20.6856 27.9722 21.0349 27.6229C21.3842 27.2736 21.858 27.0773 22.352 27.0773H29.8027C30.2967 27.0773 30.7705 26.8811 31.1198 26.5318C31.4691 26.1825 31.6653 25.7087 31.6653 25.2147C31.6653 24.7207 31.4691 24.2469 31.1198 23.8976C30.7705 23.5482 30.2967 23.352 29.8027 23.352H26.0773C24.5953 23.352 23.174 22.7633 22.126 21.7153C21.0781 20.6674 20.4893 19.246 20.4893 17.764C20.4893 16.282 21.0781 14.8606 22.126 13.8127C23.174 12.7647 24.5953 12.176 26.0773 12.176V10.3133C26.0773 9.81932 26.2736 9.34555 26.6229 8.99623C26.9722 8.64691 27.446 8.45067 27.94 8.45067C28.434 8.45067 28.9078 8.64691 29.2571 8.99623C29.6064 9.34555 29.8027 9.81932 29.8027 10.3133V12.176H33.528C34.022 12.176 34.4958 12.3722 34.8451 12.7216C35.1944 13.0709 35.3907 13.5447 35.3907 14.0387C35.3907 14.5327 35.1944 15.0065 34.8451 15.3558C34.4958 15.7051 34.022 15.9013 33.528 15.9013H26.0773C25.5833 15.9013 25.1095 16.0976 24.7602 16.4469C24.4109 16.7962 24.2147 17.27 24.2147 17.764C24.2147 18.258 24.4109 18.7318 24.7602 19.0811C25.1095 19.4304 25.5833 19.6267 26.0773 19.6267Z" fill="#666699"/>
</svg>
