<?xml version="1.0" standalone="no"?>
<!DOCTYPE svg PUBLIC "-//W3C//DTD SVG 20010904//EN"
 "http://www.w3.org/TR/2001/REC-SVG-20010904/DTD/svg10.dtd">
<svg version="1.0" xmlns="http://www.w3.org/2000/svg"
 width="1020.000000pt" height="1020.000000pt" viewBox="0 0 1020.000000 1020.000000"
 preserveAspectRatio="xMidYMid meet">
<metadata>
Created by potrace 1.14, written by Peter Selinger 2001-2017
</metadata>
<g transform="translate(0.000000,1020.000000) scale(0.100000,-0.100000)"
fill="#000000" stroke="none">
<path d="M4838 9535 c-2 -1 -46 -6 -98 -9 -52 -4 -115 -9 -140 -12 -25 -3 -65
-7 -90 -8 -25 -2 -45 -4 -45 -6 0 -1 -11 -3 -25 -4 -55 -6 -143 -19 -210 -31
-19 -4 -46 -9 -60 -11 -14 -3 -48 -9 -76 -15 -28 -5 -61 -12 -75 -14 -13 -3
-69 -16 -124 -30 -55 -14 -108 -28 -119 -30 -31 -7 -130 -35 -146 -42 -8 -3
-20 -7 -26 -8 -28 -7 -292 -99 -316 -112 -15 -7 -30 -13 -33 -13 -54 -1 -557
-246 -755 -368 -19 -12 -42 -25 -50 -29 -8 -4 -19 -11 -25 -15 -5 -5 -59 -41
-119 -79 -60 -39 -114 -75 -120 -80 -10 -9 -134 -100 -185 -137 -13 -9 -28
-21 -35 -27 -6 -5 -36 -30 -66 -55 -30 -24 -56 -48 -58 -52 -2 -5 -8 -8 -12
-8 -5 0 -22 -12 -38 -27 -16 -16 -69 -64 -117 -108 -154 -140 -343 -336 -460
-476 -19 -23 -83 -102 -115 -142 -8 -11 -21 -25 -27 -32 -7 -8 -13 -16 -13
-20 0 -3 -9 -16 -20 -28 -48 -53 -219 -305 -328 -487 -68 -113 -178 -321 -174
-332 1 -3 -5 -12 -13 -18 -8 -7 -15 -16 -15 -21 0 -4 -18 -47 -41 -96 -36 -77
-63 -140 -102 -233 -5 -14 -11 -29 -12 -35 -2 -5 -14 -39 -28 -75 -36 -93 -40
-104 -42 -116 -3 -12 -41 -126 -52 -154 -3 -8 -7 -19 -8 -25 -2 -5 -17 -59
-34 -120 -17 -60 -33 -119 -35 -130 -3 -11 -12 -51 -21 -90 -21 -87 -28 -120
-40 -190 -3 -16 -10 -52 -15 -80 -5 -27 -12 -63 -14 -80 -11 -72 -19 -132 -22
-155 -1 -14 -3 -25 -4 -25 -1 0 -3 -18 -5 -40 -2 -22 -6 -65 -9 -95 -28 -258
-28 -800 -1 -1020 3 -25 7 -61 10 -80 5 -51 15 -131 19 -160 2 -14 7 -43 10
-65 3 -22 8 -51 11 -65 3 -14 8 -41 11 -60 3 -19 7 -41 9 -48 3 -7 7 -34 11
-60 3 -26 9 -51 12 -57 3 -5 7 -16 8 -25 2 -23 11 -60 24 -110 7 -25 13 -52
15 -60 4 -21 25 -99 35 -135 19 -60 71 -220 77 -235 3 -8 8 -26 10 -39 2 -13
12 -35 21 -49 9 -14 16 -28 14 -29 -2 -2 9 -36 24 -76 16 -40 29 -74 30 -77 9
-41 175 -393 240 -510 20 -36 50 -90 66 -120 17 -30 39 -67 49 -82 11 -14 19
-29 19 -32 0 -4 5 -12 10 -19 6 -7 41 -59 78 -117 66 -104 84 -129 132 -194
14 -19 32 -44 40 -56 14 -21 36 -50 98 -130 43 -55 86 -105 94 -108 5 -2 8 -8
8 -12 0 -5 12 -22 27 -38 16 -16 59 -64 97 -106 38 -43 111 -120 162 -171 l93
-94 153 78 c84 42 178 87 208 100 30 13 73 31 95 41 22 10 65 27 95 39 30 12
64 26 75 31 36 17 220 82 233 83 6 0 12 4 12 9 0 4 6 8 13 8 6 0 75 21 152 45
77 25 147 47 155 49 8 2 22 6 30 9 8 3 44 13 80 22 36 10 72 19 80 22 8 4 21
7 28 9 40 8 119 27 132 32 19 7 18 7 60 15 19 4 44 9 55 11 11 2 70 16 130 29
61 14 130 28 155 32 49 7 59 17 61 55 0 14 2 34 4 45 3 11 7 45 11 75 3 30 8
64 10 75 3 11 7 36 10 55 3 19 7 46 10 60 2 14 7 41 10 60 3 19 11 62 19 95 7
33 16 77 19 99 4 21 8 41 10 45 2 3 7 22 10 41 9 55 15 80 36 160 11 41 22 86
25 100 7 37 10 50 24 100 7 25 14 52 16 60 2 8 8 27 14 43 6 15 8 27 5 27 -4
0 -1 6 5 13 6 8 9 16 6 19 -3 2 7 40 21 84 14 43 27 86 29 94 2 8 20 65 40
125 20 61 38 117 40 125 5 19 82 238 94 265 50 112 146 346 151 371 11 48 -17
80 -85 100 -75 21 -176 27 -242 13 -29 -6 -54 -10 -55 -9 -2 1 -16 -4 -33 -10
-16 -7 -43 -14 -59 -17 -29 -5 -29 -4 -22 36 11 69 71 164 138 219 19 15 113
52 143 57 11 1 20 3 20 4 0 2 7 4 15 6 8 1 33 7 55 13 22 6 56 13 75 16 163
26 277 67 313 113 25 31 123 184 163 256 15 26 31 47 36 47 4 0 7 3 6 8 -1 4
30 56 70 115 39 59 72 112 72 117 0 4 4 10 8 12 5 2 37 46 72 98 55 82 260
377 282 405 5 6 39 53 77 105 39 52 96 130 128 173 73 98 74 112 8 112 -51 1
-91 -8 -230 -52 -128 -40 -151 -39 -174 5 -25 48 13 110 73 119 12 2 23 8 24
13 2 6 12 10 22 10 10 0 22 5 25 10 4 6 11 8 16 5 5 -4 9 -1 9 4 0 6 7 11 15
11 8 0 37 14 63 30 27 17 54 30 61 30 6 0 11 5 11 10 0 6 7 10 15 10 8 0 15 4
15 9 0 5 13 15 28 22 35 17 464 319 474 334 5 6 8 6 8 0 0 -6 3 -5 8 1 11 17
123 90 162 106 21 9 64 15 105 14 186 -3 334 -179 265 -316 -10 -19 -109 -127
-221 -240 -184 -187 -380 -399 -469 -509 -19 -23 -45 -55 -58 -69 -13 -15 -35
-43 -50 -62 -15 -19 -30 -37 -33 -40 -3 -3 -24 -28 -45 -56 -162 -211 -232
-305 -254 -337 -14 -20 -28 -37 -32 -37 -5 0 -8 -4 -8 -9 0 -5 -25 -45 -55
-90 -30 -45 -55 -86 -55 -91 0 -6 -4 -10 -10 -10 -5 0 -10 -6 -10 -14 0 -8 -7
-22 -16 -30 -8 -9 -13 -16 -10 -16 3 0 -5 -15 -17 -33 -34 -51 -116 -219 -119
-246 -3 -22 3 -27 42 -38 25 -7 66 -15 92 -18 26 -3 61 -7 78 -10 52 -9 205
-21 388 -30 57 -3 108 -7 113 -11 5 -3 9 -1 9 3 0 5 26 6 58 2 43 -4 1513 -3
1567 2 31 3 130 -12 138 -20 17 -17 -20 -48 -71 -60 -80 -19 -378 -78 -402
-79 -8 -1 -28 -4 -45 -7 -16 -3 -46 -7 -65 -9 -19 -2 -57 -7 -85 -10 -48 -6
-94 -10 -230 -21 -173 -14 -252 -16 -1295 -29 -97 -1 -181 -5 -187 -9 -7 -4
-14 -3 -18 3 -4 6 -10 8 -15 5 -5 -3 -53 -7 -107 -10 -122 -5 -137 -8 -184
-39 -25 -17 -46 -43 -64 -83 -15 -32 -33 -70 -41 -85 -8 -14 -14 -33 -14 -42
0 -9 -4 -16 -8 -16 -4 0 -14 -17 -22 -37 -7 -21 -25 -65 -40 -98 -25 -53 -58
-131 -107 -245 -8 -19 -25 -57 -38 -85 -34 -74 -85 -208 -85 -222 0 -7 -5 -13
-10 -13 -6 0 -9 -3 -8 -7 2 -7 -23 -82 -55 -163 -6 -14 -11 -29 -12 -35 -2 -5
-17 -50 -34 -100 -18 -49 -32 -91 -32 -92 0 -2 -2 -8 -4 -15 -6 -17 -55 -188
-61 -210 -2 -10 -6 -27 -9 -38 -3 -11 -7 -29 -9 -40 -3 -11 -7 -24 -10 -28 -3
-5 -8 -24 -11 -43 -3 -19 -8 -41 -11 -50 -2 -10 -7 -30 -9 -45 -3 -16 -11 -63
-19 -104 -8 -41 -17 -93 -21 -115 -10 -62 -15 -306 -6 -300 5 2 30 7 57 9 53
5 130 14 179 21 17 2 57 6 90 10 33 3 78 8 100 10 53 6 248 18 307 19 27 1 48
4 48 8 0 4 11 3 25 -2 14 -5 25 -6 25 -2 0 5 188 7 418 6 404 -2 485 -4 663
-19 46 -4 104 -8 130 -10 60 -4 157 -15 194 -20 17 -3 55 -7 85 -10 30 -3 71
-8 90 -10 19 -3 53 -7 75 -10 22 -2 49 -6 60 -8 11 -3 47 -8 80 -12 32 -3 62
-8 65 -10 3 -2 24 -6 46 -9 21 -3 50 -8 64 -11 14 -3 41 -8 60 -10 41 -5 72
-11 158 -30 34 -8 77 -17 95 -20 17 -3 40 -8 49 -11 9 -3 27 -7 40 -9 43 -8
123 -27 148 -36 21 -6 66 -18 179 -45 29 -6 226 -65 241 -71 20 -8 20 -8 55
-18 17 -4 35 -10 40 -14 6 -3 15 -6 20 -6 6 -1 17 -4 25 -8 8 -3 42 -15 75
-26 79 -27 133 -47 170 -62 17 -7 32 -13 35 -13 11 -2 77 -29 128 -52 29 -13
58 -24 65 -24 7 0 17 -4 22 -8 6 -5 51 -26 100 -47 50 -21 98 -45 107 -53 9
-8 21 -11 27 -8 5 3 11 3 13 -1 1 -5 17 -16 34 -25 l31 -17 74 78 c96 101 164
176 214 236 22 27 45 53 50 59 6 6 33 40 60 76 28 36 53 67 56 70 3 3 47 64
97 135 51 72 96 135 100 140 26 36 142 227 142 235 0 5 5 10 11 10 5 0 8 4 5
9 -4 5 -2 11 3 13 12 4 101 171 190 353 59 123 97 210 174 400 20 51 125 362
132 393 2 9 12 44 21 77 9 33 18 67 19 75 2 8 4 15 5 15 1 0 3 7 5 15 2 8 6
26 9 40 14 60 56 258 61 285 2 17 6 39 8 50 3 11 10 58 17 105 7 47 16 100 20
118 6 22 5 30 -2 26 -6 -4 -8 -2 -5 3 12 19 24 116 34 273 10 139 9 599 0 730
-13 174 -17 225 -22 255 -3 17 -8 50 -10 75 -3 25 -8 61 -11 80 -4 19 -8 44
-10 55 -2 11 -5 34 -8 50 -13 80 -18 110 -21 115 -2 3 -6 26 -10 50 -4 25 -11
50 -16 56 -5 6 -6 13 -3 16 3 3 -7 50 -21 104 -14 55 -27 106 -29 114 -4 26
-26 100 -68 235 -23 72 -41 133 -40 138 1 4 -3 7 -9 7 -5 0 -8 4 -4 10 3 5 1
17 -5 27 -5 10 -27 65 -49 123 -65 173 -215 501 -233 508 -4 2 -8 10 -8 18 0
13 -18 52 -30 64 -3 3 -12 19 -20 35 -8 17 -36 65 -63 108 -26 43 -47 80 -47
83 0 2 -18 31 -40 63 -22 32 -40 63 -40 69 0 6 -3 12 -7 14 -5 2 -32 39 -62
83 -51 75 -189 264 -201 275 -3 3 -23 28 -45 55 -60 76 -68 85 -95 115 -14 16
-52 59 -85 96 -109 124 -340 350 -475 463 -29 25 -58 50 -64 56 -6 6 -39 32
-73 58 -34 26 -68 53 -75 60 -7 6 -36 28 -63 47 -28 19 -51 38 -53 42 -2 4
-10 8 -17 8 -7 0 -15 4 -17 8 -4 11 -245 172 -257 172 -5 0 -11 4 -13 8 -7 19
-579 328 -596 322 -1 0 -24 9 -50 20 -68 31 -256 104 -332 130 -36 12 -74 26
-85 30 -28 12 -127 43 -145 46 -8 2 -62 17 -120 34 -58 17 -117 33 -133 35
-15 2 -31 7 -36 9 -5 3 -26 8 -47 11 -22 4 -48 9 -59 12 -29 9 -35 11 -170 34
-33 6 -71 12 -85 15 -14 2 -43 6 -65 9 -22 3 -50 7 -63 10 -13 2 -53 7 -90 11
-37 3 -80 8 -97 10 -89 12 -178 15 -452 18 -166 2 -303 3 -305 1z m-1281
-1579 c7 -3 13 -1 13 5 0 6 5 7 10 4 6 -4 34 -8 63 -10 85 -7 160 -14 197 -20
19 -3 51 -7 70 -10 44 -6 83 -13 140 -25 25 -5 57 -12 71 -14 47 -8 255 -65
381 -105 153 -49 294 -101 401 -150 26 -11 54 -21 62 -21 8 0 15 -5 15 -10 0
-6 3 -9 8 -8 4 1 29 -8 56 -20 27 -12 50 -22 52 -22 4 0 273 -128 324 -155 25
-13 92 -48 150 -78 125 -65 215 -113 290 -157 30 -17 67 -36 83 -43 15 -6 27
-15 27 -19 0 -4 4 -8 10 -8 8 0 81 -41 185 -105 11 -7 24 -12 29 -13 5 0 12
-5 15 -10 3 -5 21 -18 40 -28 39 -22 37 -20 171 -104 115 -70 169 -105 185
-118 6 -5 15 -11 21 -13 6 -2 70 -42 142 -89 73 -47 140 -89 150 -95 9 -5 56
-36 104 -67 48 -32 92 -58 97 -58 6 0 11 -4 11 -9 0 -5 8 -11 18 -15 19 -6 75
-38 94 -53 7 -6 51 -31 98 -55 47 -25 101 -53 120 -64 19 -10 38 -18 41 -19 3
0 25 -10 50 -22 96 -49 343 -135 423 -149 17 -2 38 -7 46 -9 8 -2 33 -7 55
-11 74 -14 380 -9 380 6 0 1 13 4 29 6 53 9 175 72 226 116 64 57 129 145 145
198 10 33 19 94 19 130 1 61 25 60 41 -2 6 -25 10 -55 9 -65 -1 -10 -4 -34 -7
-53 -6 -46 -39 -150 -48 -150 -3 0 -13 -14 -20 -32 -32 -77 -178 -200 -299
-252 -62 -27 -75 -31 -129 -42 -14 -3 -28 -7 -32 -9 -42 -26 -391 -26 -509 0
-14 3 -41 8 -60 11 -48 7 -183 42 -217 55 -16 6 -35 12 -43 14 -43 10 -234 84
-335 130 -122 56 -284 140 -440 228 -157 88 -230 129 -270 151 -11 6 -28 17
-37 25 -10 8 -18 11 -18 7 0 -4 -12 1 -27 12 -27 18 -347 193 -368 201 -5 2
-18 10 -27 19 -10 8 -18 12 -18 7 0 -4 -6 -3 -12 2 -7 6 -38 24 -68 40 -30 17
-72 40 -94 52 -54 31 -195 102 -198 99 -2 -1 -21 10 -43 23 -22 14 -60 34 -85
44 -25 11 -48 23 -51 28 -3 5 -9 8 -13 8 -3 0 -38 15 -78 33 -40 18 -104 48
-143 66 -38 17 -94 43 -123 57 -68 31 -204 90 -262 113 -158 63 -289 110 -380
139 -58 18 -114 37 -125 41 -16 7 -83 25 -165 45 -8 2 -17 4 -20 5 -3 1 -8 2
-12 1 -4 0 -18 3 -31 8 -13 5 -39 12 -58 15 -47 8 -78 14 -97 20 -9 3 -35 8
-57 11 -22 4 -49 9 -60 12 -11 3 -33 7 -50 8 -16 1 -55 5 -85 9 -110 14 -138
16 -285 17 -140 1 -340 -17 -405 -36 -8 -2 -28 -6 -43 -9 -77 -13 -260 -83
-277 -105 -3 -4 -21 -18 -40 -31 -19 -13 -43 -31 -52 -41 -10 -10 -23 -21 -30
-26 -19 -12 -142 -153 -134 -153 3 0 -11 -23 -30 -51 -19 -28 -34 -57 -34 -65
0 -8 -4 -14 -8 -14 -6 0 -27 -40 -37 -72 -1 -5 -3 -9 -5 -10 -1 -2 -3 -10 -5
-19 -1 -9 -10 -32 -18 -50 -16 -36 -42 -136 -53 -209 -10 -62 -11 -237 -3
-285 4 -22 10 -56 13 -75 13 -82 110 -311 150 -353 6 -7 23 -28 38 -47 44 -57
89 -103 148 -151 62 -51 165 -119 179 -119 5 0 11 -3 13 -7 11 -26 365 -162
463 -179 16 -2 38 -7 47 -10 28 -8 157 -31 223 -40 17 -2 46 -6 65 -9 62 -9
174 -18 237 -19 35 -1 63 -3 63 -6 0 -3 25 -5 55 -6 30 0 58 -3 61 -7 14 -13
-17 -34 -53 -36 -21 -1 -56 -3 -78 -5 -22 -1 -45 -5 -50 -8 -11 -6 -504 -1
-550 6 -16 3 -48 7 -70 10 -22 3 -51 8 -65 11 -14 3 -43 8 -65 11 -22 4 -47
10 -56 15 -9 4 -18 6 -21 4 -5 -5 -200 56 -251 79 -139 62 -229 109 -261 139
-11 9 -23 17 -28 17 -4 0 -16 8 -27 18 -10 9 -38 33 -61 52 -24 19 -59 53 -79
74 -20 21 -43 46 -52 55 -29 29 -109 145 -109 158 0 7 -4 13 -9 13 -5 0 -13
10 -17 23 -3 12 -12 29 -19 37 -6 8 -28 58 -47 110 -32 84 -46 139 -62 230 -3
14 -5 25 -6 25 -5 0 -13 125 -13 205 -1 284 91 570 261 810 39 55 192 215 245
257 111 87 262 156 437 199 80 19 100 24 130 29 19 4 46 8 60 10 14 2 48 6 76
9 28 3 75 8 104 11 29 2 54 6 56 7 4 5 218 -1 231 -6z"/>
</g>
</svg>
