<svg xmlns="http://www.w3.org/2000/svg" width="27" height="26" fill="none">
  <g clip-path="url(#a)">
    <path fill="#fff" d="M13.5 6.33A6.79 6.79 0 0 0 6.58 13a6.79 6.79 0 0 0 6.92 6.67c3.83 0 6.92-2.98 6.92-6.67s-3.09-6.67-6.92-6.67Zm0 11C11.03 17.33 9 15.4 9 13s2.02-4.33 4.5-4.33S18 10.6 18 13s-2.02 4.33-4.5 4.33Zm8.82-11.27c0 .87-.72 1.56-1.61 1.56-.9 0-1.62-.7-1.62-1.56 0-.86.73-1.55 1.62-1.55.89 0 1.61.7 1.61 1.55Zm4.59 1.58c-.1-2.08-.6-3.93-2.19-5.45C23.15.67 21.23.2 19.07.1A172.4 172.4 0 0 0 7.93.1C5.78.2 3.86.68 2.28 2.2.69 3.7.2 5.55.1 7.63c-.13 2.15-.13 8.58 0 10.73.1 2.08.6 3.93 2.18 5.45s3.49 2 5.65 2.1c2.23.12 8.91.12 11.14 0 2.16-.1 4.08-.58 5.65-2.1 1.58-1.52 2.08-3.37 2.19-5.45.12-2.15.12-8.57 0-10.72Zm-2.88 13.02a4.47 4.47 0 0 1-2.57 2.48c-1.78.67-6 .52-7.96.52s-6.18.15-7.95-.52a4.48 4.48 0 0 1-2.57-2.48c-.7-1.7-.54-5.77-.54-7.66 0-1.9-.16-5.96.54-7.66a4.48 4.48 0 0 1 2.57-2.48c1.77-.67 5.99-.52 7.95-.52 1.97 0 6.19-.15 7.96.52a4.48 4.48 0 0 1 2.57 2.48c.7 1.7.54 5.77.54 7.66 0 1.9.16 5.96-.54 7.66Z"/>
  </g>
  <defs>
    <clipPath id="a">
      <path fill="#fff" d="M0 0h27v26H0z"/>
    </clipPath>
  </defs>
</svg>