<svg xmlns="http://www.w3.org/2000/svg" width="27" height="27" fill="none">
  <g clip-path="url(#a)">
    <path fill="#fff" d="M25.07 0H1.92C.86 0 0 .87 0 1.95v23.1C0 26.13.86 27 1.92 27h23.15c1.06 0 1.93-.87 1.93-1.95V1.95C27 .87 26.13 0 25.07 0ZM8.16 23.14h-4V10.26h4v12.88Zm-2-14.64a2.32 2.32 0 1 1 0-4.64 2.32 2.32 0 0 1 0 4.64Zm17 14.64h-4v-6.27c0-1.49-.03-3.41-2.08-3.41-2.09 0-2.4 1.62-2.4 3.3v6.38h-4V10.26h3.83v1.76h.06a4.22 4.22 0 0 1 3.79-2.08c4.05 0 4.8 2.67 4.8 6.14v7.06Z"/>
  </g>
  <defs>
    <clipPath id="a">
      <path fill="#fff" d="M0 0h27v27H0z"/>
    </clipPath>
  </defs>
</svg>